<mxfile host="app.diagrams.net" modified="2022-02-28T15:13:47.538Z" agent="5.0 (Windows NT 10.0; Win64; x64) AppleWebKit/537.36 (KHTML, like Gecko) Chrome/98.0.4758.102 Safari/537.36" etag="jPyAw93mBWv2rReSLmrX" version="16.6.4" type="github">
  <diagram id="DPIqhVDyf0il2X2MRdax" name="Page-1">
    <mxGraphModel dx="2933" dy="1022" grid="1" gridSize="10" guides="1" tooltips="1" connect="1" arrows="1" fold="1" page="1" pageScale="1" pageWidth="850" pageHeight="1100" math="0" shadow="0">
      <root>
        <mxCell id="0" />
        <mxCell id="1" parent="0" />
        <mxCell id="e67eIa8he8277cA4eaDI-134" style="edgeStyle=orthogonalEdgeStyle;rounded=0;orthogonalLoop=1;jettySize=auto;html=1;entryX=0.5;entryY=0;entryDx=0;entryDy=0;fontSize=10;endArrow=none;endFill=0;" parent="1" source="e67eIa8he8277cA4eaDI-136" target="e67eIa8he8277cA4eaDI-237" edge="1">
          <mxGeometry relative="1" as="geometry">
            <Array as="points">
              <mxPoint x="675" y="315" />
            </Array>
            <mxPoint x="645" y="315" as="targetPoint" />
          </mxGeometry>
        </mxCell>
        <mxCell id="e67eIa8he8277cA4eaDI-135" value="(1,1)" style="edgeLabel;html=1;align=center;verticalAlign=middle;resizable=0;points=[];fontSize=10;" parent="e67eIa8he8277cA4eaDI-134" vertex="1" connectable="0">
          <mxGeometry x="0.768" y="1" relative="1" as="geometry">
            <mxPoint x="-17" as="offset" />
          </mxGeometry>
        </mxCell>
        <mxCell id="e67eIa8he8277cA4eaDI-136" value="Hospital" style="rounded=0;whiteSpace=wrap;html=1;fillColor=#fff2cc;strokeColor=#d6b656;" parent="1" vertex="1">
          <mxGeometry x="625" y="290" width="100" height="50" as="geometry" />
        </mxCell>
        <mxCell id="e67eIa8he8277cA4eaDI-137" style="rounded=0;orthogonalLoop=1;jettySize=auto;html=1;entryX=0;entryY=0.5;entryDx=0;entryDy=0;fontSize=10;endArrow=none;endFill=0;" parent="1" source="e67eIa8he8277cA4eaDI-138" target="e67eIa8he8277cA4eaDI-136" edge="1">
          <mxGeometry relative="1" as="geometry" />
        </mxCell>
        <mxCell id="e67eIa8he8277cA4eaDI-138" value="&lt;font style=&quot;font-size: 10px;&quot;&gt;nome&lt;/font&gt;" style="ellipse;whiteSpace=wrap;html=1;fontSize=10;" parent="1" vertex="1">
          <mxGeometry x="535" y="270" width="60" height="30" as="geometry" />
        </mxCell>
        <mxCell id="e67eIa8he8277cA4eaDI-139" style="edgeStyle=none;rounded=0;orthogonalLoop=1;jettySize=auto;html=1;entryX=0;entryY=0.25;entryDx=0;entryDy=0;fontSize=10;endArrow=none;endFill=0;" parent="1" source="e67eIa8he8277cA4eaDI-140" target="e67eIa8he8277cA4eaDI-136" edge="1">
          <mxGeometry relative="1" as="geometry" />
        </mxCell>
        <mxCell id="e67eIa8he8277cA4eaDI-140" value="&lt;u style=&quot;font-size: 10px;&quot;&gt;&lt;font style=&quot;font-size: 10px;&quot;&gt;cod_hospital&lt;/font&gt;&lt;/u&gt;" style="ellipse;whiteSpace=wrap;html=1;fontSize=10;" parent="1" vertex="1">
          <mxGeometry x="535" y="230" width="60" height="30" as="geometry" />
        </mxCell>
        <mxCell id="e67eIa8he8277cA4eaDI-151" style="edgeStyle=none;rounded=0;orthogonalLoop=1;jettySize=auto;html=1;entryX=0;entryY=0.75;entryDx=0;entryDy=0;fontSize=10;endArrow=none;endFill=0;" parent="1" source="e67eIa8he8277cA4eaDI-152" target="e67eIa8he8277cA4eaDI-136" edge="1">
          <mxGeometry relative="1" as="geometry" />
        </mxCell>
        <mxCell id="e67eIa8he8277cA4eaDI-152" value="&lt;font style=&quot;font-size: 10px;&quot;&gt;qtd_leitos&lt;/font&gt;" style="ellipse;whiteSpace=wrap;html=1;fontSize=10;" parent="1" vertex="1">
          <mxGeometry x="535" y="310" width="60" height="30" as="geometry" />
        </mxCell>
        <mxCell id="e67eIa8he8277cA4eaDI-156" style="edgeStyle=none;rounded=0;orthogonalLoop=1;jettySize=auto;html=1;entryX=0;entryY=0.5;entryDx=0;entryDy=0;fontSize=10;endArrow=none;endFill=0;exitX=1;exitY=0.5;exitDx=0;exitDy=0;" parent="1" source="e67eIa8he8277cA4eaDI-160" target="e67eIa8he8277cA4eaDI-207" edge="1">
          <mxGeometry relative="1" as="geometry">
            <mxPoint x="1015.5" y="585" as="sourcePoint" />
          </mxGeometry>
        </mxCell>
        <mxCell id="e67eIa8he8277cA4eaDI-157" value="(1,n)" style="edgeLabel;html=1;align=center;verticalAlign=middle;resizable=0;points=[];fontSize=10;" parent="e67eIa8he8277cA4eaDI-156" vertex="1" connectable="0">
          <mxGeometry x="-0.5254" y="2" relative="1" as="geometry">
            <mxPoint x="20" y="2" as="offset" />
          </mxGeometry>
        </mxCell>
        <mxCell id="e67eIa8he8277cA4eaDI-158" style="edgeStyle=none;rounded=0;orthogonalLoop=1;jettySize=auto;html=1;entryX=0.5;entryY=0;entryDx=0;entryDy=0;fontSize=10;endArrow=none;endFill=0;" parent="1" source="e67eIa8he8277cA4eaDI-160" target="e67eIa8he8277cA4eaDI-216" edge="1">
          <mxGeometry relative="1" as="geometry" />
        </mxCell>
        <mxCell id="e67eIa8he8277cA4eaDI-159" value="(1,1)" style="edgeLabel;html=1;align=center;verticalAlign=middle;resizable=0;points=[];fontSize=10;" parent="e67eIa8he8277cA4eaDI-158" vertex="1" connectable="0">
          <mxGeometry x="-0.4556" relative="1" as="geometry">
            <mxPoint x="-3" y="44" as="offset" />
          </mxGeometry>
        </mxCell>
        <mxCell id="e67eIa8he8277cA4eaDI-160" value="Paciente" style="rounded=0;whiteSpace=wrap;html=1;fillColor=#fff2cc;strokeColor=#d6b656;" parent="1" vertex="1">
          <mxGeometry x="870.5" y="560" width="100" height="50" as="geometry" />
        </mxCell>
        <mxCell id="e67eIa8he8277cA4eaDI-161" style="edgeStyle=none;rounded=0;orthogonalLoop=1;jettySize=auto;html=1;fontSize=10;endArrow=none;endFill=0;entryX=0;entryY=0.25;entryDx=0;entryDy=0;" parent="1" source="e67eIa8he8277cA4eaDI-162" target="e67eIa8he8277cA4eaDI-160" edge="1">
          <mxGeometry relative="1" as="geometry">
            <mxPoint x="830" y="595" as="targetPoint" />
          </mxGeometry>
        </mxCell>
        <mxCell id="e67eIa8he8277cA4eaDI-162" value="&lt;font style=&quot;font-size: 10px&quot;&gt;CPF&lt;/font&gt;" style="ellipse;whiteSpace=wrap;html=1;" parent="1" vertex="1">
          <mxGeometry x="820.5" y="530" width="50" height="20" as="geometry" />
        </mxCell>
        <mxCell id="e67eIa8he8277cA4eaDI-163" style="edgeStyle=none;rounded=0;orthogonalLoop=1;jettySize=auto;html=1;entryX=0;entryY=0.75;entryDx=0;entryDy=0;fontSize=10;endArrow=none;endFill=0;" parent="1" source="e67eIa8he8277cA4eaDI-164" target="e67eIa8he8277cA4eaDI-160" edge="1">
          <mxGeometry relative="1" as="geometry">
            <mxPoint x="875.2" y="621" as="targetPoint" />
          </mxGeometry>
        </mxCell>
        <mxCell id="e67eIa8he8277cA4eaDI-164" value="&lt;span style=&quot;font-size: 10px&quot;&gt;&lt;u&gt;num_cartao_sus&lt;/u&gt;&lt;/span&gt;" style="ellipse;whiteSpace=wrap;html=1;" parent="1" vertex="1">
          <mxGeometry x="750" y="610" width="84.5" height="30" as="geometry" />
        </mxCell>
        <mxCell id="e67eIa8he8277cA4eaDI-167" style="edgeStyle=none;rounded=0;orthogonalLoop=1;jettySize=auto;html=1;entryX=0.052;entryY=0.991;entryDx=0;entryDy=0;fontSize=10;endArrow=none;endFill=0;entryPerimeter=0;" parent="1" source="e67eIa8he8277cA4eaDI-168" target="e67eIa8he8277cA4eaDI-160" edge="1">
          <mxGeometry relative="1" as="geometry">
            <mxPoint x="875.0000000000002" y="630.0000000000002" as="targetPoint" />
          </mxGeometry>
        </mxCell>
        <mxCell id="e67eIa8he8277cA4eaDI-168" value="&lt;font style=&quot;font-size: 10px&quot;&gt;sintomas&lt;/font&gt;" style="ellipse;whiteSpace=wrap;html=1;" parent="1" vertex="1">
          <mxGeometry x="794.5" y="640" width="60" height="30" as="geometry" />
        </mxCell>
        <mxCell id="e67eIa8he8277cA4eaDI-169" value="" style="endArrow=none;html=1;rounded=0;fontSize=10;exitX=0.5;exitY=0;exitDx=0;exitDy=0;entryX=0.5;entryY=1;entryDx=0;entryDy=0;" parent="1" source="e67eIa8he8277cA4eaDI-136" target="e67eIa8he8277cA4eaDI-173" edge="1">
          <mxGeometry width="50" height="50" relative="1" as="geometry">
            <mxPoint x="635" y="320" as="sourcePoint" />
            <mxPoint x="545" y="260" as="targetPoint" />
          </mxGeometry>
        </mxCell>
        <mxCell id="e67eIa8he8277cA4eaDI-170" value="(1,1)" style="edgeLabel;html=1;align=center;verticalAlign=middle;resizable=0;points=[];fontSize=10;" parent="e67eIa8he8277cA4eaDI-169" vertex="1" connectable="0">
          <mxGeometry x="-0.4071" relative="1" as="geometry">
            <mxPoint x="-1" y="-8" as="offset" />
          </mxGeometry>
        </mxCell>
        <mxCell id="e67eIa8he8277cA4eaDI-171" style="edgeStyle=none;rounded=0;orthogonalLoop=1;jettySize=auto;html=1;entryX=0;entryY=0.5;entryDx=0;entryDy=0;fontSize=10;endArrow=none;endFill=0;" parent="1" source="e67eIa8he8277cA4eaDI-173" target="e67eIa8he8277cA4eaDI-177" edge="1">
          <mxGeometry relative="1" as="geometry" />
        </mxCell>
        <mxCell id="e67eIa8he8277cA4eaDI-172" value="(0,n)" style="edgeLabel;html=1;align=center;verticalAlign=middle;resizable=0;points=[];fontSize=10;" parent="e67eIa8he8277cA4eaDI-171" vertex="1" connectable="0">
          <mxGeometry x="-0.7099" y="-1" relative="1" as="geometry">
            <mxPoint x="55" y="-1" as="offset" />
          </mxGeometry>
        </mxCell>
        <mxCell id="e67eIa8he8277cA4eaDI-173" value="Emprega" style="rhombus;whiteSpace=wrap;html=1;fontSize=10;fillColor=#dae8fc;strokeColor=#6c8ebf;" parent="1" vertex="1">
          <mxGeometry x="650" y="200" width="50" height="50" as="geometry" />
        </mxCell>
        <mxCell id="e67eIa8he8277cA4eaDI-174" style="edgeStyle=none;rounded=0;orthogonalLoop=1;jettySize=auto;html=1;fontSize=10;endArrow=none;endFill=0;entryX=0.25;entryY=1;entryDx=0;entryDy=0;" parent="1" source="e67eIa8he8277cA4eaDI-175" target="e67eIa8he8277cA4eaDI-160" edge="1">
          <mxGeometry relative="1" as="geometry">
            <mxPoint x="890.0000000000002" y="630.5" as="targetPoint" />
          </mxGeometry>
        </mxCell>
        <mxCell id="e67eIa8he8277cA4eaDI-175" value="&lt;font style=&quot;font-size: 10px;&quot;&gt;endereco&lt;/font&gt;" style="ellipse;whiteSpace=wrap;html=1;fontSize=10;" parent="1" vertex="1">
          <mxGeometry x="835.5" y="670" width="60" height="30" as="geometry" />
        </mxCell>
        <mxCell id="NWJl9YIsChpOu8ITYaEX-7" style="edgeStyle=orthogonalEdgeStyle;rounded=0;orthogonalLoop=1;jettySize=auto;html=1;entryX=1;entryY=0.5;entryDx=0;entryDy=0;endArrow=none;endFill=0;" edge="1" parent="1" source="e67eIa8he8277cA4eaDI-177" target="e67eIa8he8277cA4eaDI-184">
          <mxGeometry relative="1" as="geometry" />
        </mxCell>
        <mxCell id="e67eIa8he8277cA4eaDI-177" value="&lt;font style=&quot;font-size: 9px&quot;&gt;Profissional_da_Saúde&lt;/font&gt;" style="rounded=0;whiteSpace=wrap;html=1;fillColor=#fff2cc;strokeColor=#d6b656;" parent="1" vertex="1">
          <mxGeometry x="867.5" y="200" width="100" height="50" as="geometry" />
        </mxCell>
        <mxCell id="e67eIa8he8277cA4eaDI-178" style="edgeStyle=none;rounded=0;orthogonalLoop=1;jettySize=auto;html=1;fontSize=10;endArrow=none;endFill=0;" parent="1" source="e67eIa8he8277cA4eaDI-179" target="e67eIa8he8277cA4eaDI-177" edge="1">
          <mxGeometry relative="1" as="geometry" />
        </mxCell>
        <mxCell id="e67eIa8he8277cA4eaDI-179" value="&lt;font style=&quot;font-size: 10px&quot;&gt;salario&lt;/font&gt;" style="ellipse;whiteSpace=wrap;html=1;" parent="1" vertex="1">
          <mxGeometry x="955" y="110" width="60" height="30" as="geometry" />
        </mxCell>
        <mxCell id="e67eIa8he8277cA4eaDI-180" style="edgeStyle=none;rounded=0;orthogonalLoop=1;jettySize=auto;html=1;entryX=0.25;entryY=0;entryDx=0;entryDy=0;fontSize=10;endArrow=none;endFill=0;" parent="1" source="e67eIa8he8277cA4eaDI-181" target="e67eIa8he8277cA4eaDI-177" edge="1">
          <mxGeometry relative="1" as="geometry" />
        </mxCell>
        <mxCell id="e67eIa8he8277cA4eaDI-181" value="&lt;u&gt;&lt;font style=&quot;font-size: 10px&quot;&gt;cod_profissional&lt;/font&gt;&lt;/u&gt;" style="ellipse;whiteSpace=wrap;html=1;" parent="1" vertex="1">
          <mxGeometry x="850" y="110" width="90" height="30" as="geometry" />
        </mxCell>
        <mxCell id="e67eIa8he8277cA4eaDI-182" style="edgeStyle=none;rounded=0;orthogonalLoop=1;jettySize=auto;html=1;entryX=0.75;entryY=0;entryDx=0;entryDy=0;fontSize=10;endArrow=none;endFill=0;" parent="1" source="e67eIa8he8277cA4eaDI-183" target="e67eIa8he8277cA4eaDI-177" edge="1">
          <mxGeometry relative="1" as="geometry" />
        </mxCell>
        <mxCell id="e67eIa8he8277cA4eaDI-183" value="&lt;font style=&quot;font-size: 10px&quot;&gt;nome&lt;/font&gt;" style="ellipse;whiteSpace=wrap;html=1;" parent="1" vertex="1">
          <mxGeometry x="990" y="150" width="60" height="30" as="geometry" />
        </mxCell>
        <mxCell id="e67eIa8he8277cA4eaDI-184" value="" style="triangle;whiteSpace=wrap;html=1;fontSize=10;rotation=-180;" parent="1" vertex="1">
          <mxGeometry x="1005" y="195" width="50" height="60" as="geometry" />
        </mxCell>
        <mxCell id="e67eIa8he8277cA4eaDI-186" style="edgeStyle=none;rounded=0;orthogonalLoop=1;jettySize=auto;html=1;entryX=0.5;entryY=0;entryDx=0;entryDy=0;fontSize=10;endArrow=none;endFill=0;exitX=0.5;exitY=1;exitDx=0;exitDy=0;" parent="1" source="e67eIa8he8277cA4eaDI-177" target="e67eIa8he8277cA4eaDI-197" edge="1">
          <mxGeometry relative="1" as="geometry">
            <mxPoint x="785" y="290" as="sourcePoint" />
            <Array as="points" />
          </mxGeometry>
        </mxCell>
        <mxCell id="e67eIa8he8277cA4eaDI-187" value="(1,n)" style="edgeLabel;html=1;align=center;verticalAlign=middle;resizable=0;points=[];fontSize=10;" parent="e67eIa8he8277cA4eaDI-186" vertex="1" connectable="0">
          <mxGeometry x="-0.4261" y="-1" relative="1" as="geometry">
            <mxPoint x="-1" y="4" as="offset" />
          </mxGeometry>
        </mxCell>
        <mxCell id="NWJl9YIsChpOu8ITYaEX-6" style="edgeStyle=orthogonalEdgeStyle;rounded=0;orthogonalLoop=1;jettySize=auto;html=1;entryX=0.002;entryY=0.985;entryDx=0;entryDy=0;entryPerimeter=0;endArrow=none;endFill=0;" edge="1" parent="1" source="e67eIa8he8277cA4eaDI-188" target="e67eIa8he8277cA4eaDI-184">
          <mxGeometry relative="1" as="geometry" />
        </mxCell>
        <mxCell id="e67eIa8he8277cA4eaDI-188" value="Enfermeiro" style="rounded=0;whiteSpace=wrap;html=1;fillColor=#fff2cc;strokeColor=#d6b656;" parent="1" vertex="1">
          <mxGeometry x="1093" y="90" width="100" height="50" as="geometry" />
        </mxCell>
        <mxCell id="e67eIa8he8277cA4eaDI-192" style="edgeStyle=orthogonalEdgeStyle;rounded=0;orthogonalLoop=1;jettySize=auto;html=1;entryX=0.5;entryY=0;entryDx=0;entryDy=0;fontSize=10;endArrow=none;endFill=0;exitX=0.5;exitY=1;exitDx=0;exitDy=0;" parent="1" source="e67eIa8he8277cA4eaDI-194" target="e67eIa8he8277cA4eaDI-207" edge="1">
          <mxGeometry relative="1" as="geometry">
            <Array as="points">
              <mxPoint x="1135" y="560" />
            </Array>
            <mxPoint x="1070.5" y="450" as="targetPoint" />
          </mxGeometry>
        </mxCell>
        <mxCell id="e67eIa8he8277cA4eaDI-193" value="(1,n)" style="edgeLabel;html=1;align=center;verticalAlign=middle;resizable=0;points=[];fontSize=10;" parent="e67eIa8he8277cA4eaDI-192" vertex="1" connectable="0">
          <mxGeometry x="-0.5957" relative="1" as="geometry">
            <mxPoint y="64" as="offset" />
          </mxGeometry>
        </mxCell>
        <mxCell id="NWJl9YIsChpOu8ITYaEX-8" style="edgeStyle=orthogonalEdgeStyle;rounded=0;orthogonalLoop=1;jettySize=auto;html=1;endArrow=none;endFill=0;entryX=0.001;entryY=0.005;entryDx=0;entryDy=0;entryPerimeter=0;" edge="1" parent="1" source="e67eIa8he8277cA4eaDI-194" target="e67eIa8he8277cA4eaDI-184">
          <mxGeometry relative="1" as="geometry">
            <mxPoint x="1055" y="260" as="targetPoint" />
          </mxGeometry>
        </mxCell>
        <mxCell id="e67eIa8he8277cA4eaDI-194" value="Médico" style="rounded=0;whiteSpace=wrap;html=1;fillColor=#fff2cc;strokeColor=#d6b656;" parent="1" vertex="1">
          <mxGeometry x="1085" y="310" width="100" height="50" as="geometry" />
        </mxCell>
        <mxCell id="e67eIa8he8277cA4eaDI-195" style="edgeStyle=none;rounded=0;orthogonalLoop=1;jettySize=auto;html=1;entryX=0.5;entryY=0;entryDx=0;entryDy=0;fontSize=10;endArrow=none;endFill=0;" parent="1" source="e67eIa8he8277cA4eaDI-197" target="e67eIa8he8277cA4eaDI-160" edge="1">
          <mxGeometry relative="1" as="geometry" />
        </mxCell>
        <mxCell id="e67eIa8he8277cA4eaDI-196" value="(1,n)" style="edgeLabel;html=1;align=center;verticalAlign=middle;resizable=0;points=[];fontSize=10;" parent="e67eIa8he8277cA4eaDI-195" vertex="1" connectable="0">
          <mxGeometry x="0.4" y="-2" relative="1" as="geometry">
            <mxPoint x="1" y="-13" as="offset" />
          </mxGeometry>
        </mxCell>
        <mxCell id="e67eIa8he8277cA4eaDI-197" value="Monitora" style="rhombus;whiteSpace=wrap;html=1;fontSize=10;fillColor=#dae8fc;strokeColor=#6c8ebf;" parent="1" vertex="1">
          <mxGeometry x="890.5" y="440" width="60" height="50" as="geometry" />
        </mxCell>
        <mxCell id="e67eIa8he8277cA4eaDI-198" style="edgeStyle=none;rounded=0;orthogonalLoop=1;jettySize=auto;html=1;entryX=0.84;entryY=0.007;entryDx=0;entryDy=0;fontSize=10;endArrow=none;endFill=0;entryPerimeter=0;" parent="1" source="e67eIa8he8277cA4eaDI-199" target="e67eIa8he8277cA4eaDI-188" edge="1">
          <mxGeometry relative="1" as="geometry">
            <mxPoint x="886.75" y="352.5" as="targetPoint" />
          </mxGeometry>
        </mxCell>
        <mxCell id="e67eIa8he8277cA4eaDI-199" value="&lt;font style=&quot;font-size: 10px;&quot;&gt;&lt;u style=&quot;font-size: 10px;&quot;&gt;COREN&lt;/u&gt;&lt;/font&gt;" style="ellipse;whiteSpace=wrap;html=1;fontSize=10;" parent="1" vertex="1">
          <mxGeometry x="1155" y="40" width="65" height="30" as="geometry" />
        </mxCell>
        <mxCell id="e67eIa8he8277cA4eaDI-200" style="edgeStyle=none;rounded=0;orthogonalLoop=1;jettySize=auto;html=1;entryX=0.125;entryY=-0.02;entryDx=0;entryDy=0;fontSize=10;endArrow=none;endFill=0;entryPerimeter=0;" parent="1" source="e67eIa8he8277cA4eaDI-201" target="e67eIa8he8277cA4eaDI-188" edge="1">
          <mxGeometry relative="1" as="geometry">
            <mxPoint x="886.75" y="365" as="targetPoint" />
          </mxGeometry>
        </mxCell>
        <mxCell id="e67eIa8he8277cA4eaDI-201" value="&lt;span style=&quot;font-size: 10px;&quot;&gt;especialidade&lt;/span&gt;" style="ellipse;whiteSpace=wrap;html=1;fontSize=10;" parent="1" vertex="1">
          <mxGeometry x="1065" y="40" width="65" height="30" as="geometry" />
        </mxCell>
        <mxCell id="e67eIa8he8277cA4eaDI-202" style="edgeStyle=none;rounded=0;orthogonalLoop=1;jettySize=auto;html=1;entryX=0.25;entryY=0;entryDx=0;entryDy=0;fontSize=10;endArrow=none;endFill=0;" parent="1" source="e67eIa8he8277cA4eaDI-203" target="e67eIa8he8277cA4eaDI-194" edge="1">
          <mxGeometry relative="1" as="geometry" />
        </mxCell>
        <mxCell id="e67eIa8he8277cA4eaDI-203" value="&lt;font style=&quot;font-size: 10px&quot;&gt;&lt;u&gt;CRM&lt;/u&gt;&lt;/font&gt;" style="ellipse;whiteSpace=wrap;html=1;" parent="1" vertex="1">
          <mxGeometry x="1065" y="255" width="65" height="30" as="geometry" />
        </mxCell>
        <mxCell id="e67eIa8he8277cA4eaDI-204" style="edgeStyle=none;rounded=0;orthogonalLoop=1;jettySize=auto;html=1;entryX=0.75;entryY=0;entryDx=0;entryDy=0;fontSize=10;endArrow=none;endFill=0;" parent="1" source="e67eIa8he8277cA4eaDI-205" target="e67eIa8he8277cA4eaDI-194" edge="1">
          <mxGeometry relative="1" as="geometry" />
        </mxCell>
        <mxCell id="e67eIa8he8277cA4eaDI-205" value="&lt;span style=&quot;font-size: 10px&quot;&gt;especialidade&lt;/span&gt;" style="ellipse;whiteSpace=wrap;html=1;" parent="1" vertex="1">
          <mxGeometry x="1148" y="255" width="65" height="30" as="geometry" />
        </mxCell>
        <mxCell id="e67eIa8he8277cA4eaDI-207" value="&lt;font style=&quot;font-size: 10px&quot;&gt;Examina&lt;/font&gt;" style="rhombus;whiteSpace=wrap;html=1;fontSize=10;fillColor=#dae8fc;strokeColor=#6c8ebf;" parent="1" vertex="1">
          <mxGeometry x="1110" y="560" width="50" height="50" as="geometry" />
        </mxCell>
        <mxCell id="e67eIa8he8277cA4eaDI-208" style="edgeStyle=none;rounded=0;orthogonalLoop=1;jettySize=auto;html=1;entryX=0.5;entryY=1;entryDx=0;entryDy=0;fontSize=10;endArrow=none;endFill=0;exitX=0.5;exitY=0;exitDx=0;exitDy=0;" parent="1" source="e67eIa8he8277cA4eaDI-209" target="e67eIa8he8277cA4eaDI-207" edge="1">
          <mxGeometry relative="1" as="geometry">
            <mxPoint x="1238" y="650" as="sourcePoint" />
            <mxPoint x="1238" y="610" as="targetPoint" />
          </mxGeometry>
        </mxCell>
        <mxCell id="e67eIa8he8277cA4eaDI-209" value="&lt;font style=&quot;font-size: 10px&quot;&gt;tipo_exame&lt;/font&gt;" style="ellipse;whiteSpace=wrap;html=1;" parent="1" vertex="1">
          <mxGeometry x="1110" y="640" width="60" height="30" as="geometry" />
        </mxCell>
        <mxCell id="e67eIa8he8277cA4eaDI-210" style="edgeStyle=none;rounded=0;orthogonalLoop=1;jettySize=auto;html=1;entryX=0;entryY=1;entryDx=0;entryDy=0;fontSize=10;endArrow=none;endFill=0;" parent="1" source="e67eIa8he8277cA4eaDI-211" target="e67eIa8he8277cA4eaDI-207" edge="1">
          <mxGeometry relative="1" as="geometry">
            <mxPoint x="1213" y="610" as="targetPoint" />
          </mxGeometry>
        </mxCell>
        <mxCell id="e67eIa8he8277cA4eaDI-211" value="&lt;u&gt;&lt;font style=&quot;font-size: 10px&quot;&gt;cod_exame&lt;/font&gt;&lt;/u&gt;" style="ellipse;whiteSpace=wrap;html=1;" parent="1" vertex="1">
          <mxGeometry x="1050" y="620" width="60" height="30" as="geometry" />
        </mxCell>
        <mxCell id="e67eIa8he8277cA4eaDI-212" style="edgeStyle=none;rounded=0;orthogonalLoop=1;jettySize=auto;html=1;entryX=1;entryY=1;entryDx=0;entryDy=0;fontSize=10;endArrow=none;endFill=0;" parent="1" source="e67eIa8he8277cA4eaDI-213" target="e67eIa8he8277cA4eaDI-207" edge="1">
          <mxGeometry relative="1" as="geometry">
            <mxPoint x="1238" y="610" as="targetPoint" />
          </mxGeometry>
        </mxCell>
        <mxCell id="e67eIa8he8277cA4eaDI-213" value="&lt;font style=&quot;font-size: 10px&quot;&gt;resultado&lt;/font&gt;" style="ellipse;whiteSpace=wrap;html=1;" parent="1" vertex="1">
          <mxGeometry x="1160" y="620" width="60" height="30" as="geometry" />
        </mxCell>
        <mxCell id="e67eIa8he8277cA4eaDI-214" style="edgeStyle=none;rounded=0;orthogonalLoop=1;jettySize=auto;html=1;entryX=0;entryY=0.5;entryDx=0;entryDy=0;fontSize=10;endArrow=none;endFill=0;" parent="1" source="e67eIa8he8277cA4eaDI-216" target="e67eIa8he8277cA4eaDI-217" edge="1">
          <mxGeometry relative="1" as="geometry" />
        </mxCell>
        <mxCell id="e67eIa8he8277cA4eaDI-215" value="(1,n)" style="edgeLabel;html=1;align=center;verticalAlign=middle;resizable=0;points=[];fontSize=10;" parent="e67eIa8he8277cA4eaDI-214" vertex="1" connectable="0">
          <mxGeometry x="-0.5345" y="1" relative="1" as="geometry">
            <mxPoint x="54" as="offset" />
          </mxGeometry>
        </mxCell>
        <mxCell id="e67eIa8he8277cA4eaDI-216" value="Realiza" style="rhombus;whiteSpace=wrap;html=1;fontSize=10;fillColor=#dae8fc;strokeColor=#6c8ebf;" parent="1" vertex="1">
          <mxGeometry x="895.5" y="780" width="50" height="50" as="geometry" />
        </mxCell>
        <mxCell id="e67eIa8he8277cA4eaDI-217" value="Tratamento" style="rounded=0;whiteSpace=wrap;html=1;fillColor=#fff2cc;strokeColor=#d6b656;" parent="1" vertex="1">
          <mxGeometry x="1270" y="780" width="100" height="50" as="geometry" />
        </mxCell>
        <mxCell id="e67eIa8he8277cA4eaDI-218" style="edgeStyle=none;rounded=0;orthogonalLoop=1;jettySize=auto;html=1;entryX=1;entryY=0.25;entryDx=0;entryDy=0;fontSize=10;endArrow=none;endFill=0;" parent="1" source="e67eIa8he8277cA4eaDI-219" target="e67eIa8he8277cA4eaDI-217" edge="1">
          <mxGeometry relative="1" as="geometry" />
        </mxCell>
        <mxCell id="e67eIa8he8277cA4eaDI-219" value="&lt;font style=&quot;font-size: 10px&quot;&gt;antibiotico&lt;/font&gt;" style="ellipse;whiteSpace=wrap;html=1;" parent="1" vertex="1">
          <mxGeometry x="1450" y="760" width="60" height="30" as="geometry" />
        </mxCell>
        <mxCell id="e67eIa8he8277cA4eaDI-220" style="edgeStyle=none;rounded=0;orthogonalLoop=1;jettySize=auto;html=1;entryX=1;entryY=0;entryDx=0;entryDy=0;fontSize=10;endArrow=none;endFill=0;" parent="1" source="e67eIa8he8277cA4eaDI-221" target="e67eIa8he8277cA4eaDI-217" edge="1">
          <mxGeometry relative="1" as="geometry" />
        </mxCell>
        <mxCell id="e67eIa8he8277cA4eaDI-221" value="&lt;u&gt;&lt;font style=&quot;font-size: 10px&quot;&gt;cod_tratamento&lt;/font&gt;&lt;/u&gt;" style="ellipse;whiteSpace=wrap;html=1;" parent="1" vertex="1">
          <mxGeometry x="1360" y="740" width="90" height="30" as="geometry" />
        </mxCell>
        <mxCell id="e67eIa8he8277cA4eaDI-222" style="edgeStyle=none;rounded=0;orthogonalLoop=1;jettySize=auto;html=1;entryX=1;entryY=0.5;entryDx=0;entryDy=0;fontSize=10;endArrow=none;endFill=0;" parent="1" source="e67eIa8he8277cA4eaDI-223" target="e67eIa8he8277cA4eaDI-217" edge="1">
          <mxGeometry relative="1" as="geometry" />
        </mxCell>
        <mxCell id="e67eIa8he8277cA4eaDI-223" value="&lt;font style=&quot;font-size: 10px&quot;&gt;antiviral&lt;/font&gt;" style="ellipse;whiteSpace=wrap;html=1;" parent="1" vertex="1">
          <mxGeometry x="1405" y="790" width="60" height="30" as="geometry" />
        </mxCell>
        <mxCell id="e67eIa8he8277cA4eaDI-224" style="edgeStyle=none;rounded=0;orthogonalLoop=1;jettySize=auto;html=1;entryX=1;entryY=1;entryDx=0;entryDy=0;fontSize=10;endArrow=none;endFill=0;" parent="1" source="e67eIa8he8277cA4eaDI-225" target="e67eIa8he8277cA4eaDI-217" edge="1">
          <mxGeometry relative="1" as="geometry" />
        </mxCell>
        <mxCell id="e67eIa8he8277cA4eaDI-225" value="&lt;font style=&quot;font-size: 10px&quot;&gt;drogas vasoactivas&lt;/font&gt;" style="ellipse;whiteSpace=wrap;html=1;" parent="1" vertex="1">
          <mxGeometry x="1370" y="850" width="90" height="30" as="geometry" />
        </mxCell>
        <mxCell id="e67eIa8he8277cA4eaDI-226" style="edgeStyle=none;rounded=0;orthogonalLoop=1;jettySize=auto;html=1;entryX=1;entryY=0.75;entryDx=0;entryDy=0;fontSize=10;endArrow=none;endFill=0;" parent="1" source="e67eIa8he8277cA4eaDI-227" target="e67eIa8he8277cA4eaDI-217" edge="1">
          <mxGeometry relative="1" as="geometry" />
        </mxCell>
        <mxCell id="e67eIa8he8277cA4eaDI-227" value="&lt;font style=&quot;font-size: 10px&quot;&gt;oxigenoterapia&lt;/font&gt;" style="ellipse;whiteSpace=wrap;html=1;" parent="1" vertex="1">
          <mxGeometry x="1435" y="820" width="90" height="30" as="geometry" />
        </mxCell>
        <mxCell id="e67eIa8he8277cA4eaDI-228" style="rounded=0;orthogonalLoop=1;jettySize=auto;html=1;fontSize=10;endArrow=none;endFill=0;" parent="1" source="e67eIa8he8277cA4eaDI-229" target="e67eIa8he8277cA4eaDI-207" edge="1">
          <mxGeometry relative="1" as="geometry">
            <mxPoint x="1263" y="610" as="targetPoint" />
          </mxGeometry>
        </mxCell>
        <mxCell id="e67eIa8he8277cA4eaDI-229" value="&lt;font style=&quot;font-size: 10px&quot;&gt;data_exame&lt;/font&gt;" style="ellipse;whiteSpace=wrap;html=1;" parent="1" vertex="1">
          <mxGeometry x="1183" y="590" width="60" height="30" as="geometry" />
        </mxCell>
        <mxCell id="e67eIa8he8277cA4eaDI-236" style="edgeStyle=orthogonalEdgeStyle;rounded=0;orthogonalLoop=1;jettySize=auto;html=1;entryX=0.25;entryY=0;entryDx=0;entryDy=0;fontSize=10;endArrow=none;endFill=0;exitX=0.5;exitY=1;exitDx=0;exitDy=0;" parent="1" source="e67eIa8he8277cA4eaDI-237" target="e67eIa8he8277cA4eaDI-160" edge="1">
          <mxGeometry relative="1" as="geometry">
            <Array as="points">
              <mxPoint x="675" y="505" />
              <mxPoint x="895" y="505" />
              <mxPoint x="895" y="560" />
            </Array>
          </mxGeometry>
        </mxCell>
        <mxCell id="e67eIa8he8277cA4eaDI-237" value="Registra" style="rhombus;whiteSpace=wrap;html=1;fontSize=10;fillColor=#dae8fc;strokeColor=#6c8ebf;" parent="1" vertex="1">
          <mxGeometry x="645" y="400" width="60" height="50" as="geometry" />
        </mxCell>
        <mxCell id="NWJl9YIsChpOu8ITYaEX-14" style="rounded=0;orthogonalLoop=1;jettySize=auto;html=1;entryX=1;entryY=1;entryDx=0;entryDy=0;endArrow=none;endFill=0;" edge="1" parent="1" source="e67eIa8he8277cA4eaDI-241" target="e67eIa8he8277cA4eaDI-237">
          <mxGeometry relative="1" as="geometry" />
        </mxCell>
        <mxCell id="e67eIa8he8277cA4eaDI-241" value="&lt;span style=&quot;font-size: 10px&quot;&gt;data_entrada&lt;/span&gt;" style="ellipse;whiteSpace=wrap;html=1;fontSize=10;" parent="1" vertex="1">
          <mxGeometry x="705" y="430" width="65" height="30" as="geometry" />
        </mxCell>
        <mxCell id="e67eIa8he8277cA4eaDI-242" style="edgeStyle=none;rounded=0;orthogonalLoop=1;jettySize=auto;html=1;fontSize=10;endArrow=none;endFill=0;" parent="1" source="e67eIa8he8277cA4eaDI-243" target="e67eIa8he8277cA4eaDI-197" edge="1">
          <mxGeometry relative="1" as="geometry" />
        </mxCell>
        <mxCell id="e67eIa8he8277cA4eaDI-243" value="&lt;span style=&quot;font-size: 10px&quot;&gt;status_paciente&lt;/span&gt;" style="ellipse;whiteSpace=wrap;html=1;fontSize=10;" parent="1" vertex="1">
          <mxGeometry x="800" y="450" width="75.5" height="30" as="geometry" />
        </mxCell>
        <mxCell id="e67eIa8he8277cA4eaDI-244" style="edgeStyle=none;rounded=0;orthogonalLoop=1;jettySize=auto;html=1;fontSize=10;endArrow=none;endFill=0;entryX=1;entryY=0;entryDx=0;entryDy=0;exitX=0;exitY=1;exitDx=0;exitDy=0;" parent="1" source="e67eIa8he8277cA4eaDI-261" target="e67eIa8he8277cA4eaDI-197" edge="1">
          <mxGeometry relative="1" as="geometry">
            <mxPoint x="955" y="465" as="targetPoint" />
            <mxPoint x="989.9999999999895" y="465" as="sourcePoint" />
          </mxGeometry>
        </mxCell>
        <mxCell id="e67eIa8he8277cA4eaDI-245" style="edgeStyle=none;rounded=0;orthogonalLoop=1;jettySize=auto;html=1;entryX=1;entryY=0.5;entryDx=0;entryDy=0;fontSize=10;endArrow=none;endFill=0;" parent="1" source="e67eIa8he8277cA4eaDI-246" target="e67eIa8he8277cA4eaDI-197" edge="1">
          <mxGeometry relative="1" as="geometry">
            <mxPoint x="945.4999999999999" y="477.4999999999998" as="targetPoint" />
          </mxGeometry>
        </mxCell>
        <mxCell id="e67eIa8he8277cA4eaDI-246" value="&lt;span style=&quot;font-size: 10px&quot;&gt;conclusao&lt;/span&gt;" style="ellipse;whiteSpace=wrap;html=1;" parent="1" vertex="1">
          <mxGeometry x="965.4999999999999" y="450" width="60" height="30" as="geometry" />
        </mxCell>
        <mxCell id="e67eIa8he8277cA4eaDI-247" style="edgeStyle=none;rounded=0;orthogonalLoop=1;jettySize=auto;html=1;entryX=0.185;entryY=-0.02;entryDx=0;entryDy=0;fontSize=10;endArrow=none;endFill=0;entryPerimeter=0;" parent="1" source="e67eIa8he8277cA4eaDI-248" target="e67eIa8he8277cA4eaDI-177" edge="1">
          <mxGeometry relative="1" as="geometry" />
        </mxCell>
        <mxCell id="e67eIa8he8277cA4eaDI-248" value="&lt;span style=&quot;font-size: 10px&quot;&gt;acesso_sistema&lt;/span&gt;" style="ellipse;whiteSpace=wrap;html=1;" parent="1" vertex="1">
          <mxGeometry x="778.5" y="140" width="92" height="30" as="geometry" />
        </mxCell>
        <mxCell id="e67eIa8he8277cA4eaDI-249" style="edgeStyle=none;rounded=0;orthogonalLoop=1;jettySize=auto;html=1;exitX=0.5;exitY=0;exitDx=0;exitDy=0;entryX=0.417;entryY=0.011;entryDx=0;entryDy=0;entryPerimeter=0;fontSize=10;endArrow=none;endFill=0;" parent="1" edge="1">
          <mxGeometry relative="1" as="geometry">
            <mxPoint x="1023" y="430" as="sourcePoint" />
            <mxPoint x="1016.7749999999996" y="430.3299999999999" as="targetPoint" />
          </mxGeometry>
        </mxCell>
        <mxCell id="e67eIa8he8277cA4eaDI-250" style="edgeStyle=orthogonalEdgeStyle;rounded=0;orthogonalLoop=1;jettySize=auto;html=1;entryX=0.5;entryY=0;entryDx=0;entryDy=0;fontSize=10;endArrow=none;endFill=0;startArrow=none;" parent="1" target="e67eIa8he8277cA4eaDI-217" edge="1" source="e67eIa8he8277cA4eaDI-263">
          <mxGeometry relative="1" as="geometry">
            <Array as="points" />
            <mxPoint x="1420.499999999999" y="85.00000000000045" as="sourcePoint" />
          </mxGeometry>
        </mxCell>
        <mxCell id="NWJl9YIsChpOu8ITYaEX-11" value="(0,n)" style="edgeLabel;html=1;align=center;verticalAlign=middle;resizable=0;points=[];" vertex="1" connectable="0" parent="e67eIa8he8277cA4eaDI-250">
          <mxGeometry x="-0.7499" relative="1" as="geometry">
            <mxPoint y="158" as="offset" />
          </mxGeometry>
        </mxCell>
        <mxCell id="e67eIa8he8277cA4eaDI-252" style="rounded=0;orthogonalLoop=1;jettySize=auto;html=1;entryX=0.005;entryY=0.407;entryDx=0;entryDy=0;endArrow=none;endFill=0;entryPerimeter=0;" parent="1" source="e67eIa8he8277cA4eaDI-253" target="e67eIa8he8277cA4eaDI-160" edge="1">
          <mxGeometry relative="1" as="geometry" />
        </mxCell>
        <mxCell id="e67eIa8he8277cA4eaDI-253" value="&lt;font style=&quot;font-size: 10px&quot;&gt;nome&lt;/font&gt;" style="ellipse;whiteSpace=wrap;html=1;" parent="1" vertex="1">
          <mxGeometry x="787.75" y="550" width="50" height="20" as="geometry" />
        </mxCell>
        <mxCell id="e67eIa8he8277cA4eaDI-259" value="(0,n)" style="edgeLabel;html=1;align=center;verticalAlign=middle;resizable=0;points=[];fontSize=10;" parent="1" vertex="1" connectable="0">
          <mxGeometry x="837.75" y="529" as="geometry">
            <mxPoint x="-60" y="-24" as="offset" />
          </mxGeometry>
        </mxCell>
        <mxCell id="e67eIa8he8277cA4eaDI-261" value="&lt;font style=&quot;font-size: 10px&quot;&gt;data_visita&lt;/font&gt;" style="ellipse;whiteSpace=wrap;html=1;" parent="1" vertex="1">
          <mxGeometry x="950.4999999999999" y="410" width="75" height="30" as="geometry" />
        </mxCell>
        <mxCell id="NWJl9YIsChpOu8ITYaEX-17" style="edgeStyle=none;rounded=0;orthogonalLoop=1;jettySize=auto;html=1;fontSize=10;endArrow=none;endFill=0;" edge="1" parent="1" source="e67eIa8he8277cA4eaDI-262">
          <mxGeometry relative="1" as="geometry">
            <mxPoint x="625" y="340" as="targetPoint" />
          </mxGeometry>
        </mxCell>
        <mxCell id="e67eIa8he8277cA4eaDI-262" value="&lt;font style=&quot;font-size: 10px&quot;&gt;endereço&lt;/font&gt;" style="ellipse;whiteSpace=wrap;html=1;fontSize=10;" parent="1" vertex="1">
          <mxGeometry x="525" y="350" width="80" height="30" as="geometry" />
        </mxCell>
        <mxCell id="e67eIa8he8277cA4eaDI-264" value="&lt;p class=&quot;MsoNormal&quot; style=&quot;margin-bottom: 0in ; line-height: 13.5pt&quot;&gt;&lt;b&gt;&lt;span lang=&quot;PT-BR&quot; style=&quot;font-size: 10pt ; font-family: &amp;#34;arial&amp;#34; , sans-serif&quot;&gt;Projeto:&lt;/span&gt;&lt;/b&gt;&lt;span lang=&quot;PT-BR&quot; style=&quot;font-size: 7pt ; font-family: &amp;#34;helvetica&amp;#34; , sans-serif&quot;&gt;&lt;/span&gt;&lt;/p&gt;&lt;p class=&quot;MsoNormal&quot; style=&quot;margin-bottom: 0in ; line-height: normal&quot;&gt;&lt;span lang=&quot;PT-BR&quot; style=&quot;font-size: 10pt ; font-family: &amp;#34;arial&amp;#34; , sans-serif&quot;&gt;Hospital&amp;nbsp;(&lt;u&gt;cod_hospital&lt;/u&gt;, nome*, qtd_leitos,&lt;br&gt;estado, cidade, bairro, rua)&lt;/span&gt;&lt;/p&gt;&lt;p class=&quot;MsoNormal&quot; style=&quot;margin-bottom: 0in ; line-height: normal&quot;&gt;&lt;span lang=&quot;PT-BR&quot; style=&quot;font-size: 10pt ; font-family: &amp;#34;arial&amp;#34; , sans-serif&quot;&gt;&lt;br&gt;Paciente&amp;nbsp;(&lt;u&gt;num_cartao_sus&lt;/u&gt;,&amp;nbsp;&lt;u&gt;CPF&lt;/u&gt;, nome, sintomas,&lt;br&gt;endereco, ocupa_leito, #cod_hospital, data_entrada, #cod_profissional,&lt;br&gt;status_paciente, data_visita, conclusão, data_saida)&lt;br&gt;&lt;br&gt;Profissional_da_saude&amp;nbsp;(&lt;u&gt;cod_profissional&lt;/u&gt;, nome, salario,&lt;br&gt;acesso_sistema, #cod_hospital)&lt;br&gt;&lt;br&gt;Enfermeiro&amp;nbsp;(&lt;u&gt;COREN&lt;/u&gt;, especialidade,&amp;nbsp;&lt;u&gt;#cod_profissional&lt;/u&gt;)&lt;br&gt;&lt;br&gt;Medico&amp;nbsp;(&lt;u&gt;CRM&lt;/u&gt;, especialidade,&amp;nbsp;&lt;u&gt;#cod_profissional&lt;/u&gt;)&lt;/span&gt;&lt;/p&gt;&lt;p class=&quot;MsoNormal&quot; style=&quot;margin-bottom: 0in ; line-height: 200%&quot;&gt;&lt;span style=&quot;font-family: &amp;#34;arial&amp;#34; , sans-serif ; font-size: 10pt&quot;&gt;&lt;br&gt;&lt;/span&gt;&lt;/p&gt;&lt;p class=&quot;MsoNormal&quot; style=&quot;margin-bottom: 0in ; line-height: 200%&quot;&gt;&lt;span style=&quot;font-family: &amp;#34;arial&amp;#34; , sans-serif ; font-size: 10pt&quot;&gt;Examina&amp;nbsp;&lt;/span&gt;&lt;span style=&quot;font-family: &amp;#34;arial&amp;#34; , sans-serif ; font-size: 10pt&quot;&gt;(&lt;/span&gt;&lt;u style=&quot;font-family: &amp;#34;arial&amp;#34; , sans-serif ; font-size: 10pt&quot;&gt;#num_cartao_sus&lt;/u&gt;&lt;span style=&quot;font-family: &amp;#34;arial&amp;#34; , sans-serif ; font-size: 10pt&quot;&gt;, &lt;/span&gt;&lt;u style=&quot;font-family: &amp;#34;arial&amp;#34; , sans-serif ; font-size: 10pt&quot;&gt;#cod_profissional&lt;/u&gt;&lt;span style=&quot;font-family: &amp;#34;arial&amp;#34; , sans-serif ; font-size: 10pt&quot;&gt;, &lt;/span&gt;&lt;u style=&quot;font-family: &amp;#34;arial&amp;#34; , sans-serif ; font-size: 10pt&quot;&gt;cod_exame&lt;/u&gt;&lt;span style=&quot;font-family: &amp;#34;arial&amp;#34; , sans-serif ; font-size: 10pt&quot;&gt;,&lt;/span&gt;&lt;br&gt;&lt;/p&gt;&lt;p class=&quot;MsoNormal&quot; style=&quot;margin-bottom: 0in ; line-height: normal&quot;&gt;&lt;span lang=&quot;PT-BR&quot; style=&quot;font-size: 10pt ; font-family: &amp;#34;arial&amp;#34; , sans-serif&quot;&gt;tipo_exame, data_exame, resultado) &lt;br&gt;&lt;br&gt;Tratamento&amp;nbsp;(&lt;u&gt;cod_tratamento&lt;/u&gt;, antibiótico, antiviral, oxigenoterapia,&lt;br&gt;drogas vasoactivas, #num_cartao_sus, #CRM)&lt;br&gt;&lt;br&gt;&lt;br&gt;&lt;br&gt;&lt;/span&gt;&lt;span lang=&quot;PT-BR&quot; style=&quot;font-size: 12.0pt ; font-family: &amp;#34;times new roman&amp;#34; , serif&quot;&gt;&lt;/span&gt;&lt;/p&gt;" style="text;whiteSpace=wrap;html=1;fontSize=9;" parent="1" vertex="1">
          <mxGeometry x="50.5" y="560" width="429.5" height="440" as="geometry" />
        </mxCell>
        <mxCell id="NWJl9YIsChpOu8ITYaEX-3" style="edgeStyle=orthogonalEdgeStyle;rounded=0;orthogonalLoop=1;jettySize=auto;html=1;exitX=0.5;exitY=1;exitDx=0;exitDy=0;" edge="1" parent="1" source="e67eIa8he8277cA4eaDI-248" target="e67eIa8he8277cA4eaDI-248">
          <mxGeometry relative="1" as="geometry" />
        </mxCell>
        <mxCell id="NWJl9YIsChpOu8ITYaEX-12" style="edgeStyle=orthogonalEdgeStyle;rounded=0;orthogonalLoop=1;jettySize=auto;html=1;entryX=1;entryY=0.5;entryDx=0;entryDy=0;endArrow=none;endFill=0;" edge="1" parent="1" source="e67eIa8he8277cA4eaDI-263" target="e67eIa8he8277cA4eaDI-194">
          <mxGeometry relative="1" as="geometry" />
        </mxCell>
        <mxCell id="NWJl9YIsChpOu8ITYaEX-13" value="(1,1)" style="edgeLabel;html=1;align=center;verticalAlign=middle;resizable=0;points=[];" vertex="1" connectable="0" parent="NWJl9YIsChpOu8ITYaEX-12">
          <mxGeometry x="0.241" y="-2" relative="1" as="geometry">
            <mxPoint x="13" y="2" as="offset" />
          </mxGeometry>
        </mxCell>
        <mxCell id="e67eIa8he8277cA4eaDI-263" value="Preescreve" style="rhombus;whiteSpace=wrap;html=1;fontSize=10;fillColor=#dae8fc;strokeColor=#6c8ebf;" parent="1" vertex="1">
          <mxGeometry x="1282.5" y="310" width="75" height="50" as="geometry" />
        </mxCell>
        <mxCell id="NWJl9YIsChpOu8ITYaEX-23" style="edgeStyle=none;rounded=0;orthogonalLoop=1;jettySize=auto;html=1;entryX=0;entryY=0.5;entryDx=0;entryDy=0;fontSize=10;endArrow=none;endFill=0;" edge="1" parent="1" source="NWJl9YIsChpOu8ITYaEX-20" target="e67eIa8he8277cA4eaDI-262">
          <mxGeometry relative="1" as="geometry" />
        </mxCell>
        <mxCell id="NWJl9YIsChpOu8ITYaEX-20" value="&lt;font style=&quot;font-size: 10px&quot;&gt;bairro&lt;/font&gt;" style="ellipse;whiteSpace=wrap;html=1;fontSize=10;" vertex="1" parent="1">
          <mxGeometry x="420" y="340" width="60" height="30" as="geometry" />
        </mxCell>
        <mxCell id="NWJl9YIsChpOu8ITYaEX-25" style="edgeStyle=none;rounded=0;orthogonalLoop=1;jettySize=auto;html=1;entryX=0;entryY=0;entryDx=0;entryDy=0;fontSize=10;endArrow=none;endFill=0;" edge="1" parent="1" source="NWJl9YIsChpOu8ITYaEX-21" target="e67eIa8he8277cA4eaDI-262">
          <mxGeometry relative="1" as="geometry" />
        </mxCell>
        <mxCell id="NWJl9YIsChpOu8ITYaEX-21" value="&lt;span style=&quot;font-size: 10px&quot;&gt;&lt;font style=&quot;font-size: 10px&quot;&gt;rua&lt;/font&gt;&lt;/span&gt;" style="ellipse;whiteSpace=wrap;html=1;fontSize=10;" vertex="1" parent="1">
          <mxGeometry x="435" y="300" width="60" height="30" as="geometry" />
        </mxCell>
        <mxCell id="NWJl9YIsChpOu8ITYaEX-24" style="edgeStyle=none;rounded=0;orthogonalLoop=1;jettySize=auto;html=1;fontSize=10;endArrow=none;endFill=0;" edge="1" parent="1" source="NWJl9YIsChpOu8ITYaEX-22" target="e67eIa8he8277cA4eaDI-262">
          <mxGeometry relative="1" as="geometry" />
        </mxCell>
        <mxCell id="NWJl9YIsChpOu8ITYaEX-22" value="&lt;font style=&quot;font-size: 10px&quot;&gt;cidade&lt;/font&gt;" style="ellipse;whiteSpace=wrap;html=1;fontSize=10;" vertex="1" parent="1">
          <mxGeometry x="420" y="380" width="60" height="30" as="geometry" />
        </mxCell>
        <mxCell id="NWJl9YIsChpOu8ITYaEX-27" style="edgeStyle=none;rounded=0;orthogonalLoop=1;jettySize=auto;html=1;entryX=0.334;entryY=0.962;entryDx=0;entryDy=0;entryPerimeter=0;fontSize=10;endArrow=none;endFill=0;" edge="1" parent="1" source="NWJl9YIsChpOu8ITYaEX-26" target="e67eIa8he8277cA4eaDI-262">
          <mxGeometry relative="1" as="geometry" />
        </mxCell>
        <mxCell id="NWJl9YIsChpOu8ITYaEX-26" value="&lt;font style=&quot;font-size: 10px&quot;&gt;estado&lt;/font&gt;" style="ellipse;whiteSpace=wrap;html=1;fontSize=10;" vertex="1" parent="1">
          <mxGeometry x="435" y="420" width="60" height="30" as="geometry" />
        </mxCell>
        <mxCell id="NWJl9YIsChpOu8ITYaEX-29" value="" style="edgeStyle=none;rounded=0;orthogonalLoop=1;jettySize=auto;html=1;fontSize=10;endArrow=none;endFill=0;entryX=0;entryY=0.5;entryDx=0;entryDy=0;" edge="1" parent="1" source="NWJl9YIsChpOu8ITYaEX-28" target="e67eIa8he8277cA4eaDI-160">
          <mxGeometry relative="1" as="geometry">
            <mxPoint x="845" y="600" as="targetPoint" />
          </mxGeometry>
        </mxCell>
        <mxCell id="NWJl9YIsChpOu8ITYaEX-28" value="&lt;font style=&quot;font-size: 10px&quot;&gt;ocupa_leito&lt;/font&gt;" style="ellipse;whiteSpace=wrap;html=1;" vertex="1" parent="1">
          <mxGeometry x="735" y="570" width="80" height="30" as="geometry" />
        </mxCell>
        <mxCell id="NWJl9YIsChpOu8ITYaEX-31" style="edgeStyle=none;rounded=0;orthogonalLoop=1;jettySize=auto;html=1;entryX=1;entryY=1;entryDx=0;entryDy=0;fontSize=10;endArrow=none;endFill=0;" edge="1" parent="1" source="NWJl9YIsChpOu8ITYaEX-30" target="e67eIa8he8277cA4eaDI-197">
          <mxGeometry relative="1" as="geometry" />
        </mxCell>
        <mxCell id="NWJl9YIsChpOu8ITYaEX-30" value="&lt;span style=&quot;font-size: 10px&quot;&gt;data_saida&lt;/span&gt;" style="ellipse;whiteSpace=wrap;html=1;fontSize=10;" vertex="1" parent="1">
          <mxGeometry x="952.5" y="490" width="65" height="30" as="geometry" />
        </mxCell>
      </root>
    </mxGraphModel>
  </diagram>
</mxfile>
